<svg width="48" height="48" viewBox="0 0 48 48" fill="none" xmlns="http://www.w3.org/2000/svg">
<mask id="mask0_419_488" style="mask-type:alpha" maskUnits="userSpaceOnUse" x="0" y="0" width="48" height="48">
<rect width="48" height="48" fill="#D9D9D9"/>
</mask>
<g mask="url(#mask0_419_488)">
<path d="M24 44C21.2667 44 18.6833 43.475 16.25 42.425C13.8167 41.375 11.6917 39.9417 9.875 38.125C8.05833 36.3083 6.625 34.1833 5.575 31.75C4.525 29.3167 4 26.7333 4 24C4 21.2333 4.525 18.6417 5.575 16.225C6.625 13.8083 8.05833 11.6917 9.875 9.875C11.6917 8.05833 13.8167 6.625 16.25 5.575C18.6833 4.525 21.2667 4 24 4C26.7667 4 29.3583 4.525 31.775 5.575C34.1917 6.625 36.3083 8.05833 38.125 9.875C39.9417 11.6917 41.375 13.8083 42.425 16.225C43.475 18.6417 44 21.2333 44 24V26.9C44 28.8667 43.325 30.5417 41.975 31.925C40.625 33.3083 38.9667 34 37 34C35.8 34 34.6833 33.7333 33.65 33.2C32.6167 32.6667 31.7667 31.9667 31.1 31.1C30.2 32 29.1417 32.7083 27.925 33.225C26.7083 33.7417 25.4 34 24 34C21.2333 34 18.875 33.025 16.925 31.075C14.975 29.125 14 26.7667 14 24C14 21.2333 14.975 18.875 16.925 16.925C18.875 14.975 21.2333 14 24 14C26.7667 14 29.125 14.975 31.075 16.925C33.025 18.875 34 21.2333 34 24V26.9C34 27.8667 34.3 28.625 34.9 29.175C35.5 29.725 36.2 30 37 30C37.8 30 38.5 29.725 39.1 29.175C39.7 28.625 40 27.8667 40 26.9V24C40 19.6333 38.425 15.875 35.275 12.725C32.125 9.575 28.3667 8 24 8C19.6333 8 15.875 9.575 12.725 12.725C9.575 15.875 8 19.6333 8 24C8 28.3667 9.575 32.125 12.725 35.275C15.875 38.425 19.6333 40 24 40H34V44H24ZM24 30C25.6667 30 27.0833 29.4167 28.25 28.25C29.4167 27.0833 30 25.6667 30 24C30 22.3333 29.4167 20.9167 28.25 19.75C27.0833 18.5833 25.6667 18 24 18C22.3333 18 20.9167 18.5833 19.75 19.75C18.5833 20.9167 18 22.3333 18 24C18 25.6667 18.5833 27.0833 19.75 28.25C20.9167 29.4167 22.3333 30 24 30Z" fill="#DCEAEE"/>
</g>
</svg>
